<svg width="40" height="40" viewBox="0 0 40 40" fill="none" xmlns="http://www.w3.org/2000/svg">
  <path
    d="M27.5 20.0002C27.5 18.0192 26.7334 16.2262 25.4829 14.8885C24.6369 13.9834 23.3333 14.7412 23.3333 15.9802V24.0197C23.3333 25.2547 24.6301 26.0133 25.4764 25.1138C26.7308 23.7804 27.5 21.9846 27.5 20.0002ZM6.66667 15.0002C5.74619 15.0002 5 15.7464 5 16.6668V23.3335C5 24.254 5.74619 25.0002 6.66667 25.0002H10.9763C11.4183 25.0002 11.8423 25.1758 12.1548 25.4883L17.1548 30.4883C18.2048 31.5383 20 30.7946 20 29.3098V10.6905C20 9.20567 18.2048 8.46206 17.1548 9.512L12.1548 14.512C11.8423 14.8246 11.4183 15.0002 10.9763 15.0002H6.66667Z"
    fill="#F9FAFA" />
  <path fill-rule="evenodd" clip-rule="evenodd"
    d="M23.3807 9.80581C23.5986 8.91149 24.5002 8.36309 25.3945 8.58094C30.1103 9.72965 33.3334 14.5781 33.3334 20.0002C33.3334 25.4223 30.1103 30.2708 25.3945 31.4195C24.5002 31.6373 23.5986 31.089 23.3807 30.1946C23.1629 29.3003 23.7113 28.3987 24.6056 28.1809C27.4973 27.4765 30.0001 24.254 30.0001 20.0002C30.0001 15.7465 27.4973 12.5239 24.6056 11.8196C23.7113 11.6017 23.1629 10.7001 23.3807 9.80581Z"
    fill="white" />
</svg>